G04 #@! TF.GenerationSoftware,KiCad,Pcbnew,(5.1.9)-1*
G04 #@! TF.CreationDate,2021-02-07T10:50:13-06:00*
G04 #@! TF.ProjectId,4x4_CNC_encoder_plate,3478345f-434e-4435-9f65-6e636f646572,rev?*
G04 #@! TF.SameCoordinates,Original*
G04 #@! TF.FileFunction,Profile,NP*
%FSLAX46Y46*%
G04 Gerber Fmt 4.6, Leading zero omitted, Abs format (unit mm)*
G04 Created by KiCad (PCBNEW (5.1.9)-1) date 2021-02-07 10:50:13*
%MOMM*%
%LPD*%
G01*
G04 APERTURE LIST*
G04 #@! TA.AperFunction,Profile*
%ADD10C,0.150000*%
G04 #@! TD*
G04 APERTURE END LIST*
D10*
X133000000Y-122000000D02*
X133000000Y-108000000D01*
X147000000Y-122000000D02*
X133000000Y-122000000D01*
X147000000Y-108000000D02*
X147000000Y-122000000D01*
X133000000Y-108000000D02*
X147000000Y-108000000D01*
X133000000Y-88000000D02*
X133000000Y-102000000D01*
X147000000Y-88000000D02*
X133000000Y-88000000D01*
X147000000Y-102000000D02*
X147000000Y-88000000D01*
X133000000Y-102000000D02*
X147000000Y-102000000D01*
X147000000Y-68000000D02*
X133000000Y-68000000D01*
X147000000Y-82000000D02*
X147000000Y-68000000D01*
X133000000Y-82000000D02*
X147000000Y-82000000D01*
X133000000Y-68000000D02*
X133000000Y-82000000D01*
X113000000Y-68000000D02*
X113000000Y-82000000D01*
X127000000Y-68000000D02*
X113000000Y-68000000D01*
X127000000Y-82000000D02*
X127000000Y-68000000D01*
X113000000Y-82000000D02*
X127000000Y-82000000D01*
X107000000Y-82000000D02*
X93000000Y-82000000D01*
X107000000Y-68000000D02*
X107000000Y-82000000D01*
X93000000Y-68000000D02*
X107000000Y-68000000D01*
X93000000Y-82000000D02*
X93000000Y-68000000D01*
X73000000Y-68000000D02*
X73000000Y-82000000D01*
X87000000Y-68000000D02*
X73000000Y-68000000D01*
X87000000Y-82000000D02*
X87000000Y-68000000D01*
X73000000Y-82000000D02*
X87000000Y-82000000D01*
X53000000Y-68000000D02*
X53000000Y-82000000D01*
X67000000Y-68000000D02*
X53000000Y-68000000D01*
X67000000Y-82000000D02*
X67000000Y-68000000D01*
X53000000Y-82000000D02*
X67000000Y-82000000D01*
X53000000Y-88000000D02*
X53000000Y-102000000D01*
X67000000Y-88000000D02*
X53000000Y-88000000D01*
X67000000Y-102000000D02*
X67000000Y-88000000D01*
X53000000Y-102000000D02*
X67000000Y-102000000D01*
X53000000Y-108000000D02*
X53000000Y-122000000D01*
X67000000Y-108000000D02*
X53000000Y-108000000D01*
X67000000Y-122000000D02*
X67000000Y-108000000D01*
X53000000Y-122000000D02*
X67000000Y-122000000D01*
X150000000Y-145000000D02*
G75*
G02*
X145000000Y-150000000I-5000000J0D01*
G01*
X50000000Y-65000000D02*
G75*
G02*
X55000000Y-60000000I5000000J0D01*
G01*
X145000000Y-60000000D02*
G75*
G02*
X150000000Y-65000000I0J-5000000D01*
G01*
X55000000Y-150000000D02*
G75*
G02*
X50000000Y-145000000I0J5000000D01*
G01*
X55000000Y-60000000D02*
X145000000Y-60000000D01*
X150000000Y-145000000D02*
X150000000Y-65000000D01*
X55000000Y-150000000D02*
X145000000Y-150000000D01*
X50000000Y-65000000D02*
X50000000Y-145000000D01*
M02*
