G04 #@! TF.GenerationSoftware,KiCad,Pcbnew,(5.1.9)-1*
G04 #@! TF.CreationDate,2021-02-07T16:45:38-06:00*
G04 #@! TF.ProjectId,4x4_CNC_encoder_PCB,3478345f-434e-4435-9f65-6e636f646572,rev?*
G04 #@! TF.SameCoordinates,Original*
G04 #@! TF.FileFunction,Legend,Bot*
G04 #@! TF.FilePolarity,Positive*
%FSLAX46Y46*%
G04 Gerber Fmt 4.6, Leading zero omitted, Abs format (unit mm)*
G04 Created by KiCad (PCBNEW (5.1.9)-1) date 2021-02-07 16:45:38*
%MOMM*%
%LPD*%
G01*
G04 APERTURE LIST*
%ADD10C,0.150000*%
%ADD11C,0.120000*%
%ADD12C,0.381000*%
%ADD13C,0.203200*%
%ADD14C,0.100000*%
G04 APERTURE END LIST*
D10*
X102833333Y-92547619D02*
X103166666Y-91547619D01*
X103500000Y-92547619D01*
X104261904Y-91595238D02*
X104166666Y-91547619D01*
X103976190Y-91547619D01*
X103880952Y-91595238D01*
X103833333Y-91642857D01*
X103785714Y-91738095D01*
X103785714Y-92023809D01*
X103833333Y-92119047D01*
X103880952Y-92166666D01*
X103976190Y-92214285D01*
X104166666Y-92214285D01*
X104261904Y-92166666D01*
X105119047Y-91595238D02*
X105023809Y-91547619D01*
X104833333Y-91547619D01*
X104738095Y-91595238D01*
X104690476Y-91642857D01*
X104642857Y-91738095D01*
X104642857Y-92023809D01*
X104690476Y-92119047D01*
X104738095Y-92166666D01*
X104833333Y-92214285D01*
X105023809Y-92214285D01*
X105119047Y-92166666D01*
X106500000Y-92547619D02*
X106595238Y-92547619D01*
X106690476Y-92500000D01*
X106738095Y-92452380D01*
X106785714Y-92357142D01*
X106833333Y-92166666D01*
X106833333Y-91928571D01*
X106785714Y-91738095D01*
X106738095Y-91642857D01*
X106690476Y-91595238D01*
X106595238Y-91547619D01*
X106500000Y-91547619D01*
X106404761Y-91595238D01*
X106357142Y-91642857D01*
X106309523Y-91738095D01*
X106261904Y-91928571D01*
X106261904Y-92166666D01*
X106309523Y-92357142D01*
X106357142Y-92452380D01*
X106404761Y-92500000D01*
X106500000Y-92547619D01*
X107119047Y-92547619D02*
X107452380Y-91547619D01*
X107785714Y-92547619D01*
X109214285Y-92071428D02*
X109357142Y-92023809D01*
X109404761Y-91976190D01*
X109452380Y-91880952D01*
X109452380Y-91738095D01*
X109404761Y-91642857D01*
X109357142Y-91595238D01*
X109261904Y-91547619D01*
X108880952Y-91547619D01*
X108880952Y-92547619D01*
X109214285Y-92547619D01*
X109309523Y-92500000D01*
X109357142Y-92452380D01*
X109404761Y-92357142D01*
X109404761Y-92261904D01*
X109357142Y-92166666D01*
X109309523Y-92119047D01*
X109214285Y-92071428D01*
X108880952Y-92071428D01*
X110595238Y-91833333D02*
X111071428Y-91833333D01*
X110500000Y-91547619D02*
X110833333Y-92547619D01*
X111166666Y-91547619D01*
X130380952Y-61547619D02*
X130571428Y-61547619D01*
X130666666Y-61500000D01*
X130761904Y-61404761D01*
X130809523Y-61214285D01*
X130809523Y-60880952D01*
X130761904Y-60690476D01*
X130666666Y-60595238D01*
X130571428Y-60547619D01*
X130380952Y-60547619D01*
X130285714Y-60595238D01*
X130190476Y-60690476D01*
X130142857Y-60880952D01*
X130142857Y-61214285D01*
X130190476Y-61404761D01*
X130285714Y-61500000D01*
X130380952Y-61547619D01*
X131238095Y-60547619D02*
X131238095Y-61547619D01*
X131809523Y-60547619D01*
X131809523Y-61547619D01*
X131928571Y-68896428D02*
X132071428Y-68848809D01*
X132119047Y-68801190D01*
X132166666Y-68705952D01*
X132166666Y-68563095D01*
X132119047Y-68467857D01*
X132071428Y-68420238D01*
X131976190Y-68372619D01*
X131595238Y-68372619D01*
X131595238Y-69372619D01*
X131928571Y-69372619D01*
X132023809Y-69325000D01*
X132071428Y-69277380D01*
X132119047Y-69182142D01*
X132119047Y-69086904D01*
X132071428Y-68991666D01*
X132023809Y-68944047D01*
X131928571Y-68896428D01*
X131595238Y-68896428D01*
X133023809Y-68372619D02*
X133023809Y-68896428D01*
X132976190Y-68991666D01*
X132880952Y-69039285D01*
X132690476Y-69039285D01*
X132595238Y-68991666D01*
X133023809Y-68420238D02*
X132928571Y-68372619D01*
X132690476Y-68372619D01*
X132595238Y-68420238D01*
X132547619Y-68515476D01*
X132547619Y-68610714D01*
X132595238Y-68705952D01*
X132690476Y-68753571D01*
X132928571Y-68753571D01*
X133023809Y-68801190D01*
X133357142Y-69039285D02*
X133738095Y-69039285D01*
X133500000Y-69372619D02*
X133500000Y-68515476D01*
X133547619Y-68420238D01*
X133642857Y-68372619D01*
X133738095Y-68372619D01*
X133928571Y-69039285D02*
X134309523Y-69039285D01*
X134071428Y-69372619D02*
X134071428Y-68515476D01*
X134119047Y-68420238D01*
X134214285Y-68372619D01*
X134309523Y-68372619D01*
X135023809Y-68420238D02*
X134928571Y-68372619D01*
X134738095Y-68372619D01*
X134642857Y-68420238D01*
X134595238Y-68515476D01*
X134595238Y-68896428D01*
X134642857Y-68991666D01*
X134738095Y-69039285D01*
X134928571Y-69039285D01*
X135023809Y-68991666D01*
X135071428Y-68896428D01*
X135071428Y-68801190D01*
X134595238Y-68705952D01*
X135500000Y-68372619D02*
X135500000Y-69039285D01*
X135500000Y-68848809D02*
X135547619Y-68944047D01*
X135595238Y-68991666D01*
X135690476Y-69039285D01*
X135785714Y-69039285D01*
X136023809Y-69039285D02*
X136261904Y-68372619D01*
X136500000Y-69039285D02*
X136261904Y-68372619D01*
X136166666Y-68134523D01*
X136119047Y-68086904D01*
X136023809Y-68039285D01*
X133761904Y-67103571D02*
X134523809Y-67103571D01*
X134142857Y-66722619D02*
X134142857Y-67484523D01*
X135761904Y-67103571D02*
X136523809Y-67103571D01*
D11*
X126110000Y-88390000D02*
X114890000Y-88390000D01*
X126110000Y-97610000D02*
X126110000Y-88390000D01*
X114890000Y-97610000D02*
X126110000Y-97610000D01*
X114890000Y-88390000D02*
X114890000Y-97610000D01*
X108750000Y-67750000D02*
X111250000Y-67750000D01*
X107250000Y-66000000D02*
X107250000Y-64000000D01*
X108750000Y-62250000D02*
X111250000Y-62250000D01*
X112750000Y-66000000D02*
X112750000Y-64000000D01*
X108300000Y-67300000D02*
X108750000Y-67750000D01*
X111700000Y-67300000D02*
X111250000Y-67750000D01*
X111700000Y-62700000D02*
X111250000Y-62250000D01*
X108300000Y-62700000D02*
X108750000Y-62250000D01*
D12*
X86350000Y-65074000D02*
X88890000Y-65074000D01*
X86350000Y-62534000D02*
X86350000Y-65074000D01*
X71110000Y-93014000D02*
X71110000Y-62534000D01*
X88890000Y-93014000D02*
X71110000Y-93014000D01*
X88890000Y-62534000D02*
X88890000Y-93014000D01*
X71110000Y-62534000D02*
X88890000Y-62534000D01*
D10*
X140889047Y-118571428D02*
X141650952Y-118571428D01*
X138349047Y-118571428D02*
X139110952Y-118571428D01*
X138730000Y-118952380D02*
X138730000Y-118190476D01*
X140889047Y-98571428D02*
X141650952Y-98571428D01*
X138349047Y-98571428D02*
X139110952Y-98571428D01*
X138730000Y-98952380D02*
X138730000Y-98190476D01*
X140889047Y-78571428D02*
X141650952Y-78571428D01*
X138349047Y-78571428D02*
X139110952Y-78571428D01*
X138730000Y-78952380D02*
X138730000Y-78190476D01*
X120889047Y-78571428D02*
X121650952Y-78571428D01*
X118349047Y-78571428D02*
X119110952Y-78571428D01*
X118730000Y-78952380D02*
X118730000Y-78190476D01*
X100889047Y-78571428D02*
X101650952Y-78571428D01*
X98349047Y-78571428D02*
X99110952Y-78571428D01*
X98730000Y-78952380D02*
X98730000Y-78190476D01*
X80889047Y-78571428D02*
X81650952Y-78571428D01*
X78349047Y-78571428D02*
X79110952Y-78571428D01*
X78730000Y-78952380D02*
X78730000Y-78190476D01*
X60889047Y-78571428D02*
X61650952Y-78571428D01*
X58349047Y-78571428D02*
X59110952Y-78571428D01*
X58730000Y-78952380D02*
X58730000Y-78190476D01*
X60889047Y-98571428D02*
X61650952Y-98571428D01*
X58349047Y-98571428D02*
X59110952Y-98571428D01*
X58730000Y-98952380D02*
X58730000Y-98190476D01*
X60889047Y-118571428D02*
X61650952Y-118571428D01*
X58349047Y-118571428D02*
X59110952Y-118571428D01*
X58730000Y-118952380D02*
X58730000Y-118190476D01*
D13*
X80574523Y-73165714D02*
X79304523Y-73165714D01*
X79304523Y-73746285D01*
X79365000Y-73891428D01*
X79425476Y-73964000D01*
X79546428Y-74036571D01*
X79727857Y-74036571D01*
X79848809Y-73964000D01*
X79909285Y-73891428D01*
X79969761Y-73746285D01*
X79969761Y-73165714D01*
X80574523Y-74689714D02*
X79727857Y-74689714D01*
X79969761Y-74689714D02*
X79848809Y-74762285D01*
X79788333Y-74834857D01*
X79727857Y-74980000D01*
X79727857Y-75125142D01*
X80574523Y-75850857D02*
X80514047Y-75705714D01*
X80453571Y-75633142D01*
X80332619Y-75560571D01*
X79969761Y-75560571D01*
X79848809Y-75633142D01*
X79788333Y-75705714D01*
X79727857Y-75850857D01*
X79727857Y-76068571D01*
X79788333Y-76213714D01*
X79848809Y-76286285D01*
X79969761Y-76358857D01*
X80332619Y-76358857D01*
X80453571Y-76286285D01*
X80514047Y-76213714D01*
X80574523Y-76068571D01*
X80574523Y-75850857D01*
X80574523Y-77012000D02*
X79304523Y-77012000D01*
X80211666Y-77520000D01*
X79304523Y-78028000D01*
X80574523Y-78028000D01*
X80574523Y-78753714D02*
X79727857Y-78753714D01*
X79304523Y-78753714D02*
X79365000Y-78681142D01*
X79425476Y-78753714D01*
X79365000Y-78826285D01*
X79304523Y-78753714D01*
X79425476Y-78753714D01*
X80514047Y-80132571D02*
X80574523Y-79987428D01*
X80574523Y-79697142D01*
X80514047Y-79552000D01*
X80453571Y-79479428D01*
X80332619Y-79406857D01*
X79969761Y-79406857D01*
X79848809Y-79479428D01*
X79788333Y-79552000D01*
X79727857Y-79697142D01*
X79727857Y-79987428D01*
X79788333Y-80132571D01*
X80574523Y-80785714D02*
X79727857Y-80785714D01*
X79969761Y-80785714D02*
X79848809Y-80858285D01*
X79788333Y-80930857D01*
X79727857Y-81076000D01*
X79727857Y-81221142D01*
X80574523Y-81946857D02*
X80514047Y-81801714D01*
X80453571Y-81729142D01*
X80332619Y-81656571D01*
X79969761Y-81656571D01*
X79848809Y-81729142D01*
X79788333Y-81801714D01*
X79727857Y-81946857D01*
X79727857Y-82164571D01*
X79788333Y-82309714D01*
X79848809Y-82382285D01*
X79969761Y-82454857D01*
X80332619Y-82454857D01*
X80453571Y-82382285D01*
X80514047Y-82309714D01*
X80574523Y-82164571D01*
X80574523Y-81946857D01*
D14*
X85563333Y-64374666D02*
X85796666Y-64041333D01*
X85963333Y-64374666D02*
X85963333Y-63674666D01*
X85696666Y-63674666D01*
X85630000Y-63708000D01*
X85596666Y-63741333D01*
X85563333Y-63808000D01*
X85563333Y-63908000D01*
X85596666Y-63974666D01*
X85630000Y-64008000D01*
X85696666Y-64041333D01*
X85963333Y-64041333D01*
X85296666Y-64174666D02*
X84963333Y-64174666D01*
X85363333Y-64374666D02*
X85130000Y-63674666D01*
X84896666Y-64374666D01*
X84730000Y-63674666D02*
X84563333Y-64374666D01*
X84430000Y-63874666D01*
X84296666Y-64374666D01*
X84130000Y-63674666D01*
X86121333Y-65994000D02*
X86188000Y-65960666D01*
X86288000Y-65960666D01*
X86388000Y-65994000D01*
X86454666Y-66060666D01*
X86488000Y-66127333D01*
X86521333Y-66260666D01*
X86521333Y-66360666D01*
X86488000Y-66494000D01*
X86454666Y-66560666D01*
X86388000Y-66627333D01*
X86288000Y-66660666D01*
X86221333Y-66660666D01*
X86121333Y-66627333D01*
X86088000Y-66594000D01*
X86088000Y-66360666D01*
X86221333Y-66360666D01*
X85788000Y-66660666D02*
X85788000Y-65960666D01*
X85388000Y-66660666D01*
X85388000Y-65960666D01*
X85054666Y-66660666D02*
X85054666Y-65960666D01*
X84888000Y-65960666D01*
X84788000Y-65994000D01*
X84721333Y-66060666D01*
X84688000Y-66127333D01*
X84654666Y-66260666D01*
X84654666Y-66360666D01*
X84688000Y-66494000D01*
X84721333Y-66560666D01*
X84788000Y-66627333D01*
X84888000Y-66660666D01*
X85054666Y-66660666D01*
X85971333Y-69200666D02*
X86204666Y-68867333D01*
X86371333Y-69200666D02*
X86371333Y-68500666D01*
X86104666Y-68500666D01*
X86038000Y-68534000D01*
X86004666Y-68567333D01*
X85971333Y-68634000D01*
X85971333Y-68734000D01*
X86004666Y-68800666D01*
X86038000Y-68834000D01*
X86104666Y-68867333D01*
X86371333Y-68867333D01*
X85704666Y-69167333D02*
X85604666Y-69200666D01*
X85438000Y-69200666D01*
X85371333Y-69167333D01*
X85338000Y-69134000D01*
X85304666Y-69067333D01*
X85304666Y-69000666D01*
X85338000Y-68934000D01*
X85371333Y-68900666D01*
X85438000Y-68867333D01*
X85571333Y-68834000D01*
X85638000Y-68800666D01*
X85671333Y-68767333D01*
X85704666Y-68700666D01*
X85704666Y-68634000D01*
X85671333Y-68567333D01*
X85638000Y-68534000D01*
X85571333Y-68500666D01*
X85404666Y-68500666D01*
X85304666Y-68534000D01*
X85104666Y-68500666D02*
X84704666Y-68500666D01*
X84904666Y-69200666D02*
X84904666Y-68500666D01*
X86521333Y-71040666D02*
X86288000Y-71740666D01*
X86054666Y-71040666D01*
X85421333Y-71674000D02*
X85454666Y-71707333D01*
X85554666Y-71740666D01*
X85621333Y-71740666D01*
X85721333Y-71707333D01*
X85788000Y-71640666D01*
X85821333Y-71574000D01*
X85854666Y-71440666D01*
X85854666Y-71340666D01*
X85821333Y-71207333D01*
X85788000Y-71140666D01*
X85721333Y-71074000D01*
X85621333Y-71040666D01*
X85554666Y-71040666D01*
X85454666Y-71074000D01*
X85421333Y-71107333D01*
X84721333Y-71674000D02*
X84754666Y-71707333D01*
X84854666Y-71740666D01*
X84921333Y-71740666D01*
X85021333Y-71707333D01*
X85088000Y-71640666D01*
X85121333Y-71574000D01*
X85154666Y-71440666D01*
X85154666Y-71340666D01*
X85121333Y-71207333D01*
X85088000Y-71140666D01*
X85021333Y-71074000D01*
X84921333Y-71040666D01*
X84854666Y-71040666D01*
X84754666Y-71074000D01*
X84721333Y-71107333D01*
X86329333Y-73914000D02*
X86562666Y-73914000D01*
X86562666Y-74280666D02*
X86562666Y-73580666D01*
X86229333Y-73580666D01*
X85662666Y-73814000D02*
X85662666Y-74280666D01*
X85829333Y-73547333D02*
X85996000Y-74047333D01*
X85562666Y-74047333D01*
X86329333Y-76454000D02*
X86562666Y-76454000D01*
X86562666Y-76820666D02*
X86562666Y-76120666D01*
X86229333Y-76120666D01*
X85629333Y-76120666D02*
X85962666Y-76120666D01*
X85996000Y-76454000D01*
X85962666Y-76420666D01*
X85896000Y-76387333D01*
X85729333Y-76387333D01*
X85662666Y-76420666D01*
X85629333Y-76454000D01*
X85596000Y-76520666D01*
X85596000Y-76687333D01*
X85629333Y-76754000D01*
X85662666Y-76787333D01*
X85729333Y-76820666D01*
X85896000Y-76820666D01*
X85962666Y-76787333D01*
X85996000Y-76754000D01*
X86329333Y-81534000D02*
X86562666Y-81534000D01*
X86562666Y-81900666D02*
X86562666Y-81200666D01*
X86229333Y-81200666D01*
X86029333Y-81200666D02*
X85562666Y-81200666D01*
X85862666Y-81900666D01*
X86329333Y-78994000D02*
X86562666Y-78994000D01*
X86562666Y-79360666D02*
X86562666Y-78660666D01*
X86229333Y-78660666D01*
X85662666Y-78660666D02*
X85796000Y-78660666D01*
X85862666Y-78694000D01*
X85896000Y-78727333D01*
X85962666Y-78827333D01*
X85996000Y-78960666D01*
X85996000Y-79227333D01*
X85962666Y-79294000D01*
X85929333Y-79327333D01*
X85862666Y-79360666D01*
X85729333Y-79360666D01*
X85662666Y-79327333D01*
X85629333Y-79294000D01*
X85596000Y-79227333D01*
X85596000Y-79060666D01*
X85629333Y-78994000D01*
X85662666Y-78960666D01*
X85729333Y-78927333D01*
X85862666Y-78927333D01*
X85929333Y-78960666D01*
X85962666Y-78994000D01*
X85996000Y-79060666D01*
X86379333Y-84074000D02*
X86279333Y-84107333D01*
X86246000Y-84140666D01*
X86212666Y-84207333D01*
X86212666Y-84307333D01*
X86246000Y-84374000D01*
X86279333Y-84407333D01*
X86346000Y-84440666D01*
X86612666Y-84440666D01*
X86612666Y-83740666D01*
X86379333Y-83740666D01*
X86312666Y-83774000D01*
X86279333Y-83807333D01*
X86246000Y-83874000D01*
X86246000Y-83940666D01*
X86279333Y-84007333D01*
X86312666Y-84040666D01*
X86379333Y-84074000D01*
X86612666Y-84074000D01*
X85546000Y-84440666D02*
X85946000Y-84440666D01*
X85746000Y-84440666D02*
X85746000Y-83740666D01*
X85812666Y-83840666D01*
X85879333Y-83907333D01*
X85946000Y-83940666D01*
X86379333Y-86614000D02*
X86279333Y-86647333D01*
X86246000Y-86680666D01*
X86212666Y-86747333D01*
X86212666Y-86847333D01*
X86246000Y-86914000D01*
X86279333Y-86947333D01*
X86346000Y-86980666D01*
X86612666Y-86980666D01*
X86612666Y-86280666D01*
X86379333Y-86280666D01*
X86312666Y-86314000D01*
X86279333Y-86347333D01*
X86246000Y-86414000D01*
X86246000Y-86480666D01*
X86279333Y-86547333D01*
X86312666Y-86580666D01*
X86379333Y-86614000D01*
X86612666Y-86614000D01*
X85979333Y-86280666D02*
X85546000Y-86280666D01*
X85779333Y-86547333D01*
X85679333Y-86547333D01*
X85612666Y-86580666D01*
X85579333Y-86614000D01*
X85546000Y-86680666D01*
X85546000Y-86847333D01*
X85579333Y-86914000D01*
X85612666Y-86947333D01*
X85679333Y-86980666D01*
X85879333Y-86980666D01*
X85946000Y-86947333D01*
X85979333Y-86914000D01*
X86379333Y-89154000D02*
X86279333Y-89187333D01*
X86246000Y-89220666D01*
X86212666Y-89287333D01*
X86212666Y-89387333D01*
X86246000Y-89454000D01*
X86279333Y-89487333D01*
X86346000Y-89520666D01*
X86612666Y-89520666D01*
X86612666Y-88820666D01*
X86379333Y-88820666D01*
X86312666Y-88854000D01*
X86279333Y-88887333D01*
X86246000Y-88954000D01*
X86246000Y-89020666D01*
X86279333Y-89087333D01*
X86312666Y-89120666D01*
X86379333Y-89154000D01*
X86612666Y-89154000D01*
X85946000Y-88887333D02*
X85912666Y-88854000D01*
X85846000Y-88820666D01*
X85679333Y-88820666D01*
X85612666Y-88854000D01*
X85579333Y-88887333D01*
X85546000Y-88954000D01*
X85546000Y-89020666D01*
X85579333Y-89120666D01*
X85979333Y-89520666D01*
X85546000Y-89520666D01*
X86379333Y-91694000D02*
X86279333Y-91727333D01*
X86246000Y-91760666D01*
X86212666Y-91827333D01*
X86212666Y-91927333D01*
X86246000Y-91994000D01*
X86279333Y-92027333D01*
X86346000Y-92060666D01*
X86612666Y-92060666D01*
X86612666Y-91360666D01*
X86379333Y-91360666D01*
X86312666Y-91394000D01*
X86279333Y-91427333D01*
X86246000Y-91494000D01*
X86246000Y-91560666D01*
X86279333Y-91627333D01*
X86312666Y-91660666D01*
X86379333Y-91694000D01*
X86612666Y-91694000D01*
X85612666Y-91360666D02*
X85746000Y-91360666D01*
X85812666Y-91394000D01*
X85846000Y-91427333D01*
X85912666Y-91527333D01*
X85946000Y-91660666D01*
X85946000Y-91927333D01*
X85912666Y-91994000D01*
X85879333Y-92027333D01*
X85812666Y-92060666D01*
X85679333Y-92060666D01*
X85612666Y-92027333D01*
X85579333Y-91994000D01*
X85546000Y-91927333D01*
X85546000Y-91760666D01*
X85579333Y-91694000D01*
X85612666Y-91660666D01*
X85679333Y-91627333D01*
X85812666Y-91627333D01*
X85879333Y-91660666D01*
X85912666Y-91694000D01*
X85946000Y-91760666D01*
X74420666Y-64120666D02*
X74420666Y-63420666D01*
X74254000Y-63420666D01*
X74154000Y-63454000D01*
X74087333Y-63520666D01*
X74054000Y-63587333D01*
X74020666Y-63720666D01*
X74020666Y-63820666D01*
X74054000Y-63954000D01*
X74087333Y-64020666D01*
X74154000Y-64087333D01*
X74254000Y-64120666D01*
X74420666Y-64120666D01*
X73787333Y-63420666D02*
X73354000Y-63420666D01*
X73587333Y-63687333D01*
X73487333Y-63687333D01*
X73420666Y-63720666D01*
X73387333Y-63754000D01*
X73354000Y-63820666D01*
X73354000Y-63987333D01*
X73387333Y-64054000D01*
X73420666Y-64087333D01*
X73487333Y-64120666D01*
X73687333Y-64120666D01*
X73754000Y-64087333D01*
X73787333Y-64054000D01*
X74420666Y-66660666D02*
X74420666Y-65960666D01*
X74254000Y-65960666D01*
X74154000Y-65994000D01*
X74087333Y-66060666D01*
X74054000Y-66127333D01*
X74020666Y-66260666D01*
X74020666Y-66360666D01*
X74054000Y-66494000D01*
X74087333Y-66560666D01*
X74154000Y-66627333D01*
X74254000Y-66660666D01*
X74420666Y-66660666D01*
X73754000Y-66027333D02*
X73720666Y-65994000D01*
X73654000Y-65960666D01*
X73487333Y-65960666D01*
X73420666Y-65994000D01*
X73387333Y-66027333D01*
X73354000Y-66094000D01*
X73354000Y-66160666D01*
X73387333Y-66260666D01*
X73787333Y-66660666D01*
X73354000Y-66660666D01*
X74945333Y-68534000D02*
X75012000Y-68500666D01*
X75112000Y-68500666D01*
X75212000Y-68534000D01*
X75278666Y-68600666D01*
X75312000Y-68667333D01*
X75345333Y-68800666D01*
X75345333Y-68900666D01*
X75312000Y-69034000D01*
X75278666Y-69100666D01*
X75212000Y-69167333D01*
X75112000Y-69200666D01*
X75045333Y-69200666D01*
X74945333Y-69167333D01*
X74912000Y-69134000D01*
X74912000Y-68900666D01*
X75045333Y-68900666D01*
X74612000Y-69200666D02*
X74612000Y-68500666D01*
X74212000Y-69200666D01*
X74212000Y-68500666D01*
X73878666Y-69200666D02*
X73878666Y-68500666D01*
X73712000Y-68500666D01*
X73612000Y-68534000D01*
X73545333Y-68600666D01*
X73512000Y-68667333D01*
X73478666Y-68800666D01*
X73478666Y-68900666D01*
X73512000Y-69034000D01*
X73545333Y-69100666D01*
X73612000Y-69167333D01*
X73712000Y-69200666D01*
X73878666Y-69200666D01*
X74945333Y-71074000D02*
X75012000Y-71040666D01*
X75112000Y-71040666D01*
X75212000Y-71074000D01*
X75278666Y-71140666D01*
X75312000Y-71207333D01*
X75345333Y-71340666D01*
X75345333Y-71440666D01*
X75312000Y-71574000D01*
X75278666Y-71640666D01*
X75212000Y-71707333D01*
X75112000Y-71740666D01*
X75045333Y-71740666D01*
X74945333Y-71707333D01*
X74912000Y-71674000D01*
X74912000Y-71440666D01*
X75045333Y-71440666D01*
X74612000Y-71740666D02*
X74612000Y-71040666D01*
X74212000Y-71740666D01*
X74212000Y-71040666D01*
X73878666Y-71740666D02*
X73878666Y-71040666D01*
X73712000Y-71040666D01*
X73612000Y-71074000D01*
X73545333Y-71140666D01*
X73512000Y-71207333D01*
X73478666Y-71340666D01*
X73478666Y-71440666D01*
X73512000Y-71574000D01*
X73545333Y-71640666D01*
X73612000Y-71707333D01*
X73712000Y-71740666D01*
X73878666Y-71740666D01*
X74420666Y-74280666D02*
X74420666Y-73580666D01*
X74254000Y-73580666D01*
X74154000Y-73614000D01*
X74087333Y-73680666D01*
X74054000Y-73747333D01*
X74020666Y-73880666D01*
X74020666Y-73980666D01*
X74054000Y-74114000D01*
X74087333Y-74180666D01*
X74154000Y-74247333D01*
X74254000Y-74280666D01*
X74420666Y-74280666D01*
X73354000Y-74280666D02*
X73754000Y-74280666D01*
X73554000Y-74280666D02*
X73554000Y-73580666D01*
X73620666Y-73680666D01*
X73687333Y-73747333D01*
X73754000Y-73780666D01*
X74420666Y-76820666D02*
X74420666Y-76120666D01*
X74254000Y-76120666D01*
X74154000Y-76154000D01*
X74087333Y-76220666D01*
X74054000Y-76287333D01*
X74020666Y-76420666D01*
X74020666Y-76520666D01*
X74054000Y-76654000D01*
X74087333Y-76720666D01*
X74154000Y-76787333D01*
X74254000Y-76820666D01*
X74420666Y-76820666D01*
X73587333Y-76120666D02*
X73520666Y-76120666D01*
X73454000Y-76154000D01*
X73420666Y-76187333D01*
X73387333Y-76254000D01*
X73354000Y-76387333D01*
X73354000Y-76554000D01*
X73387333Y-76687333D01*
X73420666Y-76754000D01*
X73454000Y-76787333D01*
X73520666Y-76820666D01*
X73587333Y-76820666D01*
X73654000Y-76787333D01*
X73687333Y-76754000D01*
X73720666Y-76687333D01*
X73754000Y-76554000D01*
X73754000Y-76387333D01*
X73720666Y-76254000D01*
X73687333Y-76187333D01*
X73654000Y-76154000D01*
X73587333Y-76120666D01*
X74420666Y-79360666D02*
X74420666Y-78660666D01*
X74254000Y-78660666D01*
X74154000Y-78694000D01*
X74087333Y-78760666D01*
X74054000Y-78827333D01*
X74020666Y-78960666D01*
X74020666Y-79060666D01*
X74054000Y-79194000D01*
X74087333Y-79260666D01*
X74154000Y-79327333D01*
X74254000Y-79360666D01*
X74420666Y-79360666D01*
X73420666Y-78894000D02*
X73420666Y-79360666D01*
X73587333Y-78627333D02*
X73754000Y-79127333D01*
X73320666Y-79127333D01*
X74020666Y-81834000D02*
X74054000Y-81867333D01*
X74154000Y-81900666D01*
X74220666Y-81900666D01*
X74320666Y-81867333D01*
X74387333Y-81800666D01*
X74420666Y-81734000D01*
X74454000Y-81600666D01*
X74454000Y-81500666D01*
X74420666Y-81367333D01*
X74387333Y-81300666D01*
X74320666Y-81234000D01*
X74220666Y-81200666D01*
X74154000Y-81200666D01*
X74054000Y-81234000D01*
X74020666Y-81267333D01*
X73420666Y-81200666D02*
X73554000Y-81200666D01*
X73620666Y-81234000D01*
X73654000Y-81267333D01*
X73720666Y-81367333D01*
X73754000Y-81500666D01*
X73754000Y-81767333D01*
X73720666Y-81834000D01*
X73687333Y-81867333D01*
X73620666Y-81900666D01*
X73487333Y-81900666D01*
X73420666Y-81867333D01*
X73387333Y-81834000D01*
X73354000Y-81767333D01*
X73354000Y-81600666D01*
X73387333Y-81534000D01*
X73420666Y-81500666D01*
X73487333Y-81467333D01*
X73620666Y-81467333D01*
X73687333Y-81500666D01*
X73720666Y-81534000D01*
X73754000Y-81600666D01*
X74420666Y-84440666D02*
X74420666Y-83740666D01*
X74254000Y-83740666D01*
X74154000Y-83774000D01*
X74087333Y-83840666D01*
X74054000Y-83907333D01*
X74020666Y-84040666D01*
X74020666Y-84140666D01*
X74054000Y-84274000D01*
X74087333Y-84340666D01*
X74154000Y-84407333D01*
X74254000Y-84440666D01*
X74420666Y-84440666D01*
X73787333Y-83740666D02*
X73320666Y-83740666D01*
X73620666Y-84440666D01*
X74387333Y-86614000D02*
X74154000Y-86614000D01*
X74054000Y-86980666D02*
X74387333Y-86980666D01*
X74387333Y-86280666D01*
X74054000Y-86280666D01*
X73454000Y-86280666D02*
X73587333Y-86280666D01*
X73654000Y-86314000D01*
X73687333Y-86347333D01*
X73754000Y-86447333D01*
X73787333Y-86580666D01*
X73787333Y-86847333D01*
X73754000Y-86914000D01*
X73720666Y-86947333D01*
X73654000Y-86980666D01*
X73520666Y-86980666D01*
X73454000Y-86947333D01*
X73420666Y-86914000D01*
X73387333Y-86847333D01*
X73387333Y-86680666D01*
X73420666Y-86614000D01*
X73454000Y-86580666D01*
X73520666Y-86547333D01*
X73654000Y-86547333D01*
X73720666Y-86580666D01*
X73754000Y-86614000D01*
X73787333Y-86680666D01*
X74187333Y-89154000D02*
X74087333Y-89187333D01*
X74054000Y-89220666D01*
X74020666Y-89287333D01*
X74020666Y-89387333D01*
X74054000Y-89454000D01*
X74087333Y-89487333D01*
X74154000Y-89520666D01*
X74420666Y-89520666D01*
X74420666Y-88820666D01*
X74187333Y-88820666D01*
X74120666Y-88854000D01*
X74087333Y-88887333D01*
X74054000Y-88954000D01*
X74054000Y-89020666D01*
X74087333Y-89087333D01*
X74120666Y-89120666D01*
X74187333Y-89154000D01*
X74420666Y-89154000D01*
X73420666Y-89054000D02*
X73420666Y-89520666D01*
X73587333Y-88787333D02*
X73754000Y-89287333D01*
X73320666Y-89287333D01*
X74187333Y-91694000D02*
X74087333Y-91727333D01*
X74054000Y-91760666D01*
X74020666Y-91827333D01*
X74020666Y-91927333D01*
X74054000Y-91994000D01*
X74087333Y-92027333D01*
X74154000Y-92060666D01*
X74420666Y-92060666D01*
X74420666Y-91360666D01*
X74187333Y-91360666D01*
X74120666Y-91394000D01*
X74087333Y-91427333D01*
X74054000Y-91494000D01*
X74054000Y-91560666D01*
X74087333Y-91627333D01*
X74120666Y-91660666D01*
X74187333Y-91694000D01*
X74420666Y-91694000D01*
X73387333Y-91360666D02*
X73720666Y-91360666D01*
X73754000Y-91694000D01*
X73720666Y-91660666D01*
X73654000Y-91627333D01*
X73487333Y-91627333D01*
X73420666Y-91660666D01*
X73387333Y-91694000D01*
X73354000Y-91760666D01*
X73354000Y-91927333D01*
X73387333Y-91994000D01*
X73420666Y-92027333D01*
X73487333Y-92060666D01*
X73654000Y-92060666D01*
X73720666Y-92027333D01*
X73754000Y-91994000D01*
M02*
