G04 #@! TF.GenerationSoftware,KiCad,Pcbnew,(5.1.9)-1*
G04 #@! TF.CreationDate,2021-02-07T16:45:38-06:00*
G04 #@! TF.ProjectId,4x4_CNC_encoder_PCB,3478345f-434e-4435-9f65-6e636f646572,rev?*
G04 #@! TF.SameCoordinates,Original*
G04 #@! TF.FileFunction,Copper,L2,Bot*
G04 #@! TF.FilePolarity,Positive*
%FSLAX46Y46*%
G04 Gerber Fmt 4.6, Leading zero omitted, Abs format (unit mm)*
G04 Created by KiCad (PCBNEW (5.1.9)-1) date 2021-02-07 16:45:38*
%MOMM*%
%LPD*%
G01*
G04 APERTURE LIST*
G04 #@! TA.AperFunction,ComponentPad*
%ADD10O,1.700000X1.700000*%
G04 #@! TD*
G04 #@! TA.AperFunction,ComponentPad*
%ADD11R,1.700000X1.700000*%
G04 #@! TD*
G04 #@! TA.AperFunction,ComponentPad*
%ADD12O,1.600000X1.600000*%
G04 #@! TD*
G04 #@! TA.AperFunction,ComponentPad*
%ADD13C,1.600000*%
G04 #@! TD*
G04 #@! TA.AperFunction,ComponentPad*
%ADD14R,1.600000X1.600000*%
G04 #@! TD*
G04 #@! TA.AperFunction,ComponentPad*
%ADD15R,1.905000X1.905000*%
G04 #@! TD*
G04 #@! TA.AperFunction,ComponentPad*
%ADD16C,1.905000*%
G04 #@! TD*
G04 #@! TA.AperFunction,ComponentPad*
%ADD17C,2.000000*%
G04 #@! TD*
G04 #@! TA.AperFunction,ComponentPad*
%ADD18C,2.250000*%
G04 #@! TD*
G04 #@! TA.AperFunction,SMDPad,CuDef*
%ADD19R,0.900000X0.900000*%
G04 #@! TD*
G04 #@! TA.AperFunction,SMDPad,CuDef*
%ADD20R,0.900000X1.250000*%
G04 #@! TD*
G04 #@! TA.AperFunction,WasherPad*
%ADD21C,1.000000*%
G04 #@! TD*
G04 #@! TA.AperFunction,SMDPad,CuDef*
%ADD22R,2.300000X2.300000*%
G04 #@! TD*
G04 #@! TA.AperFunction,SMDPad,CuDef*
%ADD23R,1.800000X1.100000*%
G04 #@! TD*
G04 #@! TA.AperFunction,ComponentPad*
%ADD24C,1.752600*%
G04 #@! TD*
G04 #@! TA.AperFunction,ComponentPad*
%ADD25R,1.752600X1.752600*%
G04 #@! TD*
G04 #@! TA.AperFunction,ViaPad*
%ADD26C,0.800000*%
G04 #@! TD*
G04 #@! TA.AperFunction,Conductor*
%ADD27C,0.250000*%
G04 #@! TD*
G04 APERTURE END LIST*
D10*
X136040000Y-65000000D03*
D11*
X133500000Y-65000000D03*
D12*
X145160000Y-123500000D03*
D13*
X135000000Y-123500000D03*
D12*
X141160000Y-103500000D03*
D13*
X131000000Y-103500000D03*
D12*
X145160000Y-83500000D03*
D13*
X135000000Y-83500000D03*
D12*
X125160000Y-83500000D03*
D13*
X115000000Y-83500000D03*
D12*
X105000000Y-83500000D03*
D13*
X94840000Y-83500000D03*
D12*
X75250000Y-106500000D03*
D13*
X75250000Y-96340000D03*
D12*
X65000000Y-83500000D03*
D13*
X54840000Y-83500000D03*
D12*
X68500000Y-103500000D03*
D13*
X58340000Y-103500000D03*
D12*
X65000000Y-123500000D03*
D13*
X54840000Y-123500000D03*
D12*
X135000000Y-126500000D03*
D14*
X145160000Y-126500000D03*
D12*
X131000000Y-106500000D03*
D14*
X141160000Y-106500000D03*
D12*
X135000000Y-86500000D03*
D14*
X145160000Y-86500000D03*
D12*
X115000000Y-86500000D03*
D14*
X125160000Y-86500000D03*
D12*
X94840000Y-86500000D03*
D14*
X105000000Y-86500000D03*
D12*
X72250000Y-96340000D03*
D14*
X72250000Y-106500000D03*
D12*
X54840000Y-86500000D03*
D14*
X65000000Y-86500000D03*
D12*
X58340000Y-106500000D03*
D14*
X68500000Y-106500000D03*
D12*
X54840000Y-126500000D03*
D14*
X65000000Y-126500000D03*
D15*
X141270000Y-120080000D03*
D16*
X138730000Y-120080000D03*
D17*
X140000000Y-109100000D03*
X145000000Y-111200000D03*
D18*
X137500000Y-111000000D03*
G04 #@! TA.AperFunction,ComponentPad*
G36*
G01*
X135438688Y-113297350D02*
X135438688Y-113297350D01*
G75*
G02*
X135352650Y-111708688I751312J837350D01*
G01*
X136662640Y-110248680D01*
G75*
G02*
X138251302Y-110162642I837350J-751312D01*
G01*
X138251302Y-110162642D01*
G75*
G02*
X138337340Y-111751304I-751312J-837350D01*
G01*
X137027350Y-113211312D01*
G75*
G02*
X135438688Y-113297350I-837350J751312D01*
G01*
G37*
G04 #@! TD.AperFunction*
X142540000Y-109920000D03*
G04 #@! TA.AperFunction,ComponentPad*
G36*
G01*
X142423483Y-111622395D02*
X142423483Y-111622395D01*
G75*
G02*
X141377605Y-110423483I76517J1122395D01*
G01*
X141417147Y-109843451D01*
G75*
G02*
X142616059Y-108797573I1122395J-76517D01*
G01*
X142616059Y-108797573D01*
G75*
G02*
X143661937Y-109996485I-76517J-1122395D01*
G01*
X143622395Y-110576517D01*
G75*
G02*
X142423483Y-111622395I-1122395J76517D01*
G01*
G37*
G04 #@! TD.AperFunction*
D15*
X141270000Y-100080000D03*
D16*
X138730000Y-100080000D03*
D17*
X140000000Y-89100000D03*
X145000000Y-91200000D03*
D18*
X137500000Y-91000000D03*
G04 #@! TA.AperFunction,ComponentPad*
G36*
G01*
X135438688Y-93297350D02*
X135438688Y-93297350D01*
G75*
G02*
X135352650Y-91708688I751312J837350D01*
G01*
X136662640Y-90248680D01*
G75*
G02*
X138251302Y-90162642I837350J-751312D01*
G01*
X138251302Y-90162642D01*
G75*
G02*
X138337340Y-91751304I-751312J-837350D01*
G01*
X137027350Y-93211312D01*
G75*
G02*
X135438688Y-93297350I-837350J751312D01*
G01*
G37*
G04 #@! TD.AperFunction*
X142540000Y-89920000D03*
G04 #@! TA.AperFunction,ComponentPad*
G36*
G01*
X142423483Y-91622395D02*
X142423483Y-91622395D01*
G75*
G02*
X141377605Y-90423483I76517J1122395D01*
G01*
X141417147Y-89843451D01*
G75*
G02*
X142616059Y-88797573I1122395J-76517D01*
G01*
X142616059Y-88797573D01*
G75*
G02*
X143661937Y-89996485I-76517J-1122395D01*
G01*
X143622395Y-90576517D01*
G75*
G02*
X142423483Y-91622395I-1122395J76517D01*
G01*
G37*
G04 #@! TD.AperFunction*
D15*
X141270000Y-80080000D03*
D16*
X138730000Y-80080000D03*
D17*
X140000000Y-69100000D03*
X145000000Y-71200000D03*
D18*
X137500000Y-71000000D03*
G04 #@! TA.AperFunction,ComponentPad*
G36*
G01*
X135438688Y-73297350D02*
X135438688Y-73297350D01*
G75*
G02*
X135352650Y-71708688I751312J837350D01*
G01*
X136662640Y-70248680D01*
G75*
G02*
X138251302Y-70162642I837350J-751312D01*
G01*
X138251302Y-70162642D01*
G75*
G02*
X138337340Y-71751304I-751312J-837350D01*
G01*
X137027350Y-73211312D01*
G75*
G02*
X135438688Y-73297350I-837350J751312D01*
G01*
G37*
G04 #@! TD.AperFunction*
X142540000Y-69920000D03*
G04 #@! TA.AperFunction,ComponentPad*
G36*
G01*
X142423483Y-71622395D02*
X142423483Y-71622395D01*
G75*
G02*
X141377605Y-70423483I76517J1122395D01*
G01*
X141417147Y-69843451D01*
G75*
G02*
X142616059Y-68797573I1122395J-76517D01*
G01*
X142616059Y-68797573D01*
G75*
G02*
X143661937Y-69996485I-76517J-1122395D01*
G01*
X143622395Y-70576517D01*
G75*
G02*
X142423483Y-71622395I-1122395J76517D01*
G01*
G37*
G04 #@! TD.AperFunction*
D15*
X121270000Y-80080000D03*
D16*
X118730000Y-80080000D03*
D17*
X120000000Y-69100000D03*
X125000000Y-71200000D03*
D18*
X117500000Y-71000000D03*
G04 #@! TA.AperFunction,ComponentPad*
G36*
G01*
X115438688Y-73297350D02*
X115438688Y-73297350D01*
G75*
G02*
X115352650Y-71708688I751312J837350D01*
G01*
X116662640Y-70248680D01*
G75*
G02*
X118251302Y-70162642I837350J-751312D01*
G01*
X118251302Y-70162642D01*
G75*
G02*
X118337340Y-71751304I-751312J-837350D01*
G01*
X117027350Y-73211312D01*
G75*
G02*
X115438688Y-73297350I-837350J751312D01*
G01*
G37*
G04 #@! TD.AperFunction*
X122540000Y-69920000D03*
G04 #@! TA.AperFunction,ComponentPad*
G36*
G01*
X122423483Y-71622395D02*
X122423483Y-71622395D01*
G75*
G02*
X121377605Y-70423483I76517J1122395D01*
G01*
X121417147Y-69843451D01*
G75*
G02*
X122616059Y-68797573I1122395J-76517D01*
G01*
X122616059Y-68797573D01*
G75*
G02*
X123661937Y-69996485I-76517J-1122395D01*
G01*
X123622395Y-70576517D01*
G75*
G02*
X122423483Y-71622395I-1122395J76517D01*
G01*
G37*
G04 #@! TD.AperFunction*
D15*
X101270000Y-80080000D03*
D16*
X98730000Y-80080000D03*
D17*
X100000000Y-69100000D03*
X105000000Y-71200000D03*
D18*
X97500000Y-71000000D03*
G04 #@! TA.AperFunction,ComponentPad*
G36*
G01*
X95438688Y-73297350D02*
X95438688Y-73297350D01*
G75*
G02*
X95352650Y-71708688I751312J837350D01*
G01*
X96662640Y-70248680D01*
G75*
G02*
X98251302Y-70162642I837350J-751312D01*
G01*
X98251302Y-70162642D01*
G75*
G02*
X98337340Y-71751304I-751312J-837350D01*
G01*
X97027350Y-73211312D01*
G75*
G02*
X95438688Y-73297350I-837350J751312D01*
G01*
G37*
G04 #@! TD.AperFunction*
X102540000Y-69920000D03*
G04 #@! TA.AperFunction,ComponentPad*
G36*
G01*
X102423483Y-71622395D02*
X102423483Y-71622395D01*
G75*
G02*
X101377605Y-70423483I76517J1122395D01*
G01*
X101417147Y-69843451D01*
G75*
G02*
X102616059Y-68797573I1122395J-76517D01*
G01*
X102616059Y-68797573D01*
G75*
G02*
X103661937Y-69996485I-76517J-1122395D01*
G01*
X103622395Y-70576517D01*
G75*
G02*
X102423483Y-71622395I-1122395J76517D01*
G01*
G37*
G04 #@! TD.AperFunction*
D15*
X81270000Y-80080000D03*
D16*
X78730000Y-80080000D03*
D17*
X80000000Y-69100000D03*
X85000000Y-71200000D03*
D18*
X77500000Y-71000000D03*
G04 #@! TA.AperFunction,ComponentPad*
G36*
G01*
X75438688Y-73297350D02*
X75438688Y-73297350D01*
G75*
G02*
X75352650Y-71708688I751312J837350D01*
G01*
X76662640Y-70248680D01*
G75*
G02*
X78251302Y-70162642I837350J-751312D01*
G01*
X78251302Y-70162642D01*
G75*
G02*
X78337340Y-71751304I-751312J-837350D01*
G01*
X77027350Y-73211312D01*
G75*
G02*
X75438688Y-73297350I-837350J751312D01*
G01*
G37*
G04 #@! TD.AperFunction*
X82540000Y-69920000D03*
G04 #@! TA.AperFunction,ComponentPad*
G36*
G01*
X82423483Y-71622395D02*
X82423483Y-71622395D01*
G75*
G02*
X81377605Y-70423483I76517J1122395D01*
G01*
X81417147Y-69843451D01*
G75*
G02*
X82616059Y-68797573I1122395J-76517D01*
G01*
X82616059Y-68797573D01*
G75*
G02*
X83661937Y-69996485I-76517J-1122395D01*
G01*
X83622395Y-70576517D01*
G75*
G02*
X82423483Y-71622395I-1122395J76517D01*
G01*
G37*
G04 #@! TD.AperFunction*
D15*
X61270000Y-80080000D03*
D16*
X58730000Y-80080000D03*
D17*
X60000000Y-69100000D03*
X65000000Y-71200000D03*
D18*
X57500000Y-71000000D03*
G04 #@! TA.AperFunction,ComponentPad*
G36*
G01*
X55438688Y-73297350D02*
X55438688Y-73297350D01*
G75*
G02*
X55352650Y-71708688I751312J837350D01*
G01*
X56662640Y-70248680D01*
G75*
G02*
X58251302Y-70162642I837350J-751312D01*
G01*
X58251302Y-70162642D01*
G75*
G02*
X58337340Y-71751304I-751312J-837350D01*
G01*
X57027350Y-73211312D01*
G75*
G02*
X55438688Y-73297350I-837350J751312D01*
G01*
G37*
G04 #@! TD.AperFunction*
X62540000Y-69920000D03*
G04 #@! TA.AperFunction,ComponentPad*
G36*
G01*
X62423483Y-71622395D02*
X62423483Y-71622395D01*
G75*
G02*
X61377605Y-70423483I76517J1122395D01*
G01*
X61417147Y-69843451D01*
G75*
G02*
X62616059Y-68797573I1122395J-76517D01*
G01*
X62616059Y-68797573D01*
G75*
G02*
X63661937Y-69996485I-76517J-1122395D01*
G01*
X63622395Y-70576517D01*
G75*
G02*
X62423483Y-71622395I-1122395J76517D01*
G01*
G37*
G04 #@! TD.AperFunction*
D15*
X61270000Y-100080000D03*
D16*
X58730000Y-100080000D03*
D17*
X60000000Y-89100000D03*
X65000000Y-91200000D03*
D18*
X57500000Y-91000000D03*
G04 #@! TA.AperFunction,ComponentPad*
G36*
G01*
X55438688Y-93297350D02*
X55438688Y-93297350D01*
G75*
G02*
X55352650Y-91708688I751312J837350D01*
G01*
X56662640Y-90248680D01*
G75*
G02*
X58251302Y-90162642I837350J-751312D01*
G01*
X58251302Y-90162642D01*
G75*
G02*
X58337340Y-91751304I-751312J-837350D01*
G01*
X57027350Y-93211312D01*
G75*
G02*
X55438688Y-93297350I-837350J751312D01*
G01*
G37*
G04 #@! TD.AperFunction*
X62540000Y-89920000D03*
G04 #@! TA.AperFunction,ComponentPad*
G36*
G01*
X62423483Y-91622395D02*
X62423483Y-91622395D01*
G75*
G02*
X61377605Y-90423483I76517J1122395D01*
G01*
X61417147Y-89843451D01*
G75*
G02*
X62616059Y-88797573I1122395J-76517D01*
G01*
X62616059Y-88797573D01*
G75*
G02*
X63661937Y-89996485I-76517J-1122395D01*
G01*
X63622395Y-90576517D01*
G75*
G02*
X62423483Y-91622395I-1122395J76517D01*
G01*
G37*
G04 #@! TD.AperFunction*
D15*
X61270000Y-120080000D03*
D16*
X58730000Y-120080000D03*
D17*
X60000000Y-109100000D03*
X65000000Y-111200000D03*
D18*
X57500000Y-111000000D03*
G04 #@! TA.AperFunction,ComponentPad*
G36*
G01*
X55438688Y-113297350D02*
X55438688Y-113297350D01*
G75*
G02*
X55352650Y-111708688I751312J837350D01*
G01*
X56662640Y-110248680D01*
G75*
G02*
X58251302Y-110162642I837350J-751312D01*
G01*
X58251302Y-110162642D01*
G75*
G02*
X58337340Y-111751304I-751312J-837350D01*
G01*
X57027350Y-113211312D01*
G75*
G02*
X55438688Y-113297350I-837350J751312D01*
G01*
G37*
G04 #@! TD.AperFunction*
X62540000Y-109920000D03*
G04 #@! TA.AperFunction,ComponentPad*
G36*
G01*
X62423483Y-111622395D02*
X62423483Y-111622395D01*
G75*
G02*
X61377605Y-110423483I76517J1122395D01*
G01*
X61417147Y-109843451D01*
G75*
G02*
X62616059Y-108797573I1122395J-76517D01*
G01*
X62616059Y-108797573D01*
G75*
G02*
X63661937Y-109996485I-76517J-1122395D01*
G01*
X63622395Y-110576517D01*
G75*
G02*
X62423483Y-111622395I-1122395J76517D01*
G01*
G37*
G04 #@! TD.AperFunction*
D19*
X128700000Y-61400000D03*
X128700000Y-63600000D03*
X121300000Y-63600000D03*
X121300000Y-61400000D03*
D20*
X122750000Y-64575000D03*
X127250000Y-64575000D03*
X125750000Y-64575000D03*
D21*
X126500000Y-62500000D03*
X123500000Y-62500000D03*
D22*
X114000000Y-93000000D03*
X127000000Y-93000000D03*
D23*
X113100000Y-63150000D03*
X106900000Y-63150000D03*
X113100000Y-66850000D03*
X106900000Y-66850000D03*
D24*
X72380000Y-63804000D03*
X72380000Y-66344000D03*
X72380000Y-68884000D03*
X72380000Y-71424000D03*
X72380000Y-73964000D03*
X72380000Y-76504000D03*
X72380000Y-79044000D03*
X72380000Y-81584000D03*
X72380000Y-84124000D03*
X72380000Y-86664000D03*
X72380000Y-89204000D03*
X72380000Y-91744000D03*
X87620000Y-91744000D03*
X87620000Y-89204000D03*
X87620000Y-86664000D03*
X87620000Y-84124000D03*
X87620000Y-81584000D03*
X87620000Y-79044000D03*
X87620000Y-76504000D03*
X87620000Y-73964000D03*
X87620000Y-71424000D03*
X87620000Y-68884000D03*
X87620000Y-66344000D03*
D25*
X87620000Y-63804000D03*
D10*
X103380000Y-90000000D03*
X105920000Y-90000000D03*
X108460000Y-90000000D03*
D11*
X111000000Y-90000000D03*
D26*
X90000000Y-78000000D03*
X123013671Y-95011648D03*
X121999994Y-94000000D03*
X97012660Y-92987340D03*
X96000000Y-93000000D03*
D27*
X102530001Y-89150001D02*
X94552176Y-89150001D01*
X90450011Y-78450011D02*
X90000000Y-78000000D01*
X103380000Y-90000000D02*
X102530001Y-89150001D01*
X94552176Y-89150001D02*
X90450011Y-85047835D01*
X90450011Y-85047835D02*
X90450011Y-78450011D01*
X136040000Y-65000000D02*
X134040000Y-67000000D01*
X116950000Y-67000000D02*
X113100000Y-63150000D01*
X134040000Y-67000000D02*
X116950000Y-67000000D01*
X113100000Y-63150000D02*
X106900000Y-63150000D01*
X106900000Y-63150000D02*
X106674999Y-62924999D01*
X136040000Y-65000000D02*
X127000000Y-74040000D01*
X127000000Y-81000000D02*
X127000000Y-93000000D01*
X127000000Y-74040000D02*
X127000000Y-81000000D01*
X125994998Y-81000000D02*
X127000000Y-81000000D01*
X115994998Y-91000000D02*
X125994998Y-81000000D01*
X113000000Y-91000000D02*
X115994998Y-91000000D01*
X113000000Y-91114998D02*
X113000000Y-91000000D01*
X112939997Y-91175001D02*
X113000000Y-91114998D01*
X107095001Y-91175001D02*
X112939997Y-91175001D01*
X105920000Y-90000000D02*
X107095001Y-91175001D01*
X72380000Y-71424000D02*
X72380000Y-68884000D01*
X74920000Y-66344000D02*
X87620000Y-66344000D01*
X72380000Y-68884000D02*
X74920000Y-66344000D01*
X88496299Y-67220299D02*
X87620000Y-66344000D01*
X106900000Y-63150000D02*
X102829701Y-67220299D01*
X102829701Y-67220299D02*
X88496299Y-67220299D01*
X90000000Y-76500000D02*
X87624000Y-76500000D01*
X91000000Y-77500000D02*
X90000000Y-76500000D01*
X91000000Y-84961414D02*
X91000000Y-77500000D01*
X94113597Y-88075012D02*
X91000000Y-84961414D01*
X87624000Y-76500000D02*
X87620000Y-76504000D01*
X106535012Y-88075012D02*
X94113597Y-88075012D01*
X108460000Y-90000000D02*
X106535012Y-88075012D01*
X92000000Y-76000000D02*
X89964000Y-73964000D01*
X92000000Y-85325004D02*
X92000000Y-76000000D01*
X94299996Y-87625001D02*
X92000000Y-85325004D01*
X109725001Y-87625001D02*
X94299996Y-87625001D01*
X111000000Y-88900000D02*
X109725001Y-87625001D01*
X89964000Y-73964000D02*
X87620000Y-73964000D01*
X111000000Y-90000000D02*
X111000000Y-88900000D01*
X106116000Y-67634000D02*
X106900000Y-66850000D01*
X106900000Y-66850000D02*
X113100000Y-66850000D01*
X105975001Y-67774999D02*
X106900000Y-66850000D01*
X88729001Y-67774999D02*
X105975001Y-67774999D01*
X87620000Y-68884000D02*
X88729001Y-67774999D01*
X127675000Y-65000000D02*
X127250000Y-64575000D01*
X133500000Y-65000000D02*
X127675000Y-65000000D01*
X125750000Y-64575000D02*
X124325000Y-66000000D01*
X117985002Y-66000000D02*
X113985002Y-62000000D01*
X124325000Y-66000000D02*
X117985002Y-66000000D01*
X89424000Y-62000000D02*
X87620000Y-63804000D01*
X113985002Y-62000000D02*
X89424000Y-62000000D01*
X90000000Y-80500000D02*
X88544000Y-79044000D01*
X90000000Y-85234235D02*
X90000000Y-80500000D01*
X94765765Y-90000000D02*
X90000000Y-85234235D01*
X104000000Y-93000000D02*
X101000000Y-90000000D01*
X88544000Y-79044000D02*
X87620000Y-79044000D01*
X101000000Y-90000000D02*
X94765765Y-90000000D01*
X114000000Y-93000000D02*
X104000000Y-93000000D01*
X122447986Y-95011648D02*
X123013671Y-95011648D01*
X112490235Y-95011648D02*
X122447986Y-95011648D01*
X75165002Y-108250000D02*
X77750000Y-105665002D01*
X112228587Y-94750000D02*
X112490235Y-95011648D01*
X74000000Y-108250000D02*
X75165002Y-108250000D01*
X79763911Y-94750000D02*
X112228587Y-94750000D01*
X77750000Y-96763911D02*
X79763911Y-94750000D01*
X72250000Y-106500000D02*
X74000000Y-108250000D01*
X77750000Y-105665002D02*
X77750000Y-96763911D01*
X71124000Y-93000000D02*
X72380000Y-91744000D01*
X71000000Y-93000000D02*
X71124000Y-93000000D01*
X70549991Y-93450009D02*
X71000000Y-93000000D01*
X70549991Y-105849991D02*
X70549991Y-93450009D01*
X71200000Y-106500000D02*
X70549991Y-105849991D01*
X72250000Y-106500000D02*
X71200000Y-106500000D01*
X71416000Y-81584000D02*
X72380000Y-81584000D01*
X70000000Y-83000000D02*
X71416000Y-81584000D01*
X70000000Y-105000000D02*
X70000000Y-83000000D01*
X68500000Y-106500000D02*
X70000000Y-105000000D01*
X142660000Y-129000000D02*
X145160000Y-126500000D01*
X135000000Y-129000000D02*
X142660000Y-129000000D01*
X125024999Y-119024999D02*
X135000000Y-129000000D01*
X125024999Y-86635001D02*
X125024999Y-119024999D01*
X125160000Y-86500000D02*
X125024999Y-86635001D01*
X77000000Y-73270000D02*
X76190000Y-72460000D01*
X77000000Y-81173589D02*
X77000000Y-73270000D01*
X74799989Y-83373600D02*
X77000000Y-81173589D01*
X74799989Y-93790011D02*
X74799989Y-83373600D01*
X72250000Y-96340000D02*
X74799989Y-93790011D01*
X96190000Y-85150000D02*
X94840000Y-86500000D01*
X96190000Y-72460000D02*
X96190000Y-85150000D01*
X115000000Y-85165002D02*
X115000000Y-86500000D01*
X116190000Y-83975002D02*
X115000000Y-85165002D01*
X116190000Y-72460000D02*
X116190000Y-83975002D01*
X136190000Y-85310000D02*
X136190000Y-72460000D01*
X135000000Y-86500000D02*
X136190000Y-85310000D01*
X136190000Y-101310000D02*
X136190000Y-92460000D01*
X131000000Y-106500000D02*
X136190000Y-101310000D01*
X136190000Y-125310000D02*
X136190000Y-112460000D01*
X135000000Y-126500000D02*
X136190000Y-125310000D01*
X77794987Y-95955013D02*
X77794987Y-96082514D01*
X79450011Y-94299989D02*
X77794987Y-95955013D01*
X77794987Y-96082514D02*
X75877501Y-98000000D01*
X112589999Y-94475001D02*
X112414987Y-94299989D01*
X121999994Y-94000000D02*
X121524993Y-94475001D01*
X121524993Y-94475001D02*
X112589999Y-94475001D01*
X112414987Y-94299989D02*
X79450011Y-94299989D01*
X75250000Y-98627501D02*
X75877501Y-98000000D01*
X75250000Y-106500000D02*
X75250000Y-98627501D01*
X72500000Y-94000000D02*
X74000000Y-92500000D01*
X71500000Y-94000000D02*
X72500000Y-94000000D01*
X71000000Y-94500000D02*
X71500000Y-94000000D01*
X74000000Y-90824000D02*
X72380000Y-89204000D01*
X71000000Y-97250000D02*
X71000000Y-94500000D01*
X74000000Y-92500000D02*
X74000000Y-90824000D01*
X72250000Y-98500000D02*
X71000000Y-97250000D01*
X75377501Y-98500000D02*
X72250000Y-98500000D01*
X75877501Y-98000000D02*
X75377501Y-98500000D01*
X68500000Y-82924000D02*
X72380000Y-79044000D01*
X68500000Y-103500000D02*
X68500000Y-82924000D01*
X124034999Y-84625001D02*
X125160000Y-83500000D01*
X124034999Y-120034999D02*
X124034999Y-84625001D01*
X134000000Y-130000000D02*
X124034999Y-120034999D01*
X143845002Y-130000000D02*
X134000000Y-130000000D01*
X147000000Y-126845002D02*
X143845002Y-130000000D01*
X147000000Y-125340000D02*
X147000000Y-126845002D01*
X145160000Y-123500000D02*
X147000000Y-125340000D01*
X75250000Y-83560000D02*
X78730000Y-80080000D01*
X75250000Y-96340000D02*
X75250000Y-83560000D01*
X58190000Y-97000000D02*
X61270000Y-100080000D01*
X54000000Y-97000000D02*
X58190000Y-97000000D01*
X52500000Y-95500000D02*
X54000000Y-97000000D01*
X52500000Y-90505002D02*
X52500000Y-95500000D01*
X61270000Y-81735002D02*
X52500000Y-90505002D01*
X61270000Y-80080000D02*
X61270000Y-81735002D01*
X53500000Y-116500000D02*
X57690000Y-116500000D01*
X57690000Y-116500000D02*
X61270000Y-120080000D01*
X52500000Y-115500000D02*
X53500000Y-116500000D01*
X52500000Y-95500000D02*
X52500000Y-115500000D01*
X67500000Y-71224000D02*
X72380000Y-66344000D01*
X67500000Y-75619501D02*
X67500000Y-71224000D01*
X63039501Y-80080000D02*
X67500000Y-75619501D01*
X61270000Y-80080000D02*
X63039501Y-80080000D01*
X87620000Y-84124000D02*
X83000000Y-79504000D01*
X83000000Y-73200000D02*
X85000000Y-71200000D01*
X83000000Y-79504000D02*
X83000000Y-73200000D01*
X141270000Y-80080000D02*
X145080000Y-80080000D01*
X145080000Y-80080000D02*
X148000000Y-83000000D01*
X148000000Y-83000000D02*
X148000000Y-94239002D01*
X148000000Y-94239002D02*
X147869501Y-94369501D01*
X142920000Y-120080000D02*
X141270000Y-120080000D01*
X147869501Y-115130499D02*
X142920000Y-120080000D01*
X147869501Y-94369501D02*
X147869501Y-115130499D01*
X142670000Y-100080000D02*
X141270000Y-100080000D01*
X147869501Y-94880499D02*
X142670000Y-100080000D01*
X147869501Y-94369501D02*
X147869501Y-94880499D01*
X88459990Y-87503990D02*
X87620000Y-86664000D01*
X91529310Y-87503990D02*
X88459990Y-87503990D01*
X97012660Y-92987340D02*
X91529310Y-87503990D01*
X94000000Y-91000000D02*
X96000000Y-93000000D01*
X92204000Y-89204000D02*
X94000000Y-91000000D01*
X87620000Y-89204000D02*
X92204000Y-89204000D01*
M02*
