M48
; DRILL file {KiCad (5.1.9)-1} date 02/07/21 16:45:41
; FORMAT={-:-/ absolute / inch / decimal}
; #@! TF.CreationDate,2021-02-07T16:45:41-06:00
; #@! TF.GenerationSoftware,Kicad,Pcbnew,(5.1.9)-1
; #@! TF.FileFunction,Plated,1,2,PTH
FMAT,2
INCH
T1C0.0157
T2C0.0315
T3C0.0390
T4C0.0394
T5C0.0430
T6C0.0472
T7C0.0579
%
G90
G05
T1
X3.5433Y-3.0709
X3.7795Y-3.6614
X3.8194Y-3.6609
X4.8031Y-3.7008
X4.8431Y-3.7406
T2
X2.1591Y-3.2874
X2.1591Y-3.4055
X2.1591Y-4.8622
X2.1591Y-4.9803
X2.2969Y-4.0748
X2.2969Y-4.1929
X2.5591Y-3.2874
X2.5591Y-3.4055
X2.5591Y-4.8622
X2.5591Y-4.9803
X2.6969Y-4.0748
X2.6969Y-4.1929
X2.8445Y-3.7929
X2.8445Y-4.1929
X2.9626Y-3.7929
X2.9626Y-4.1929
X3.7339Y-3.2874
X3.7339Y-3.4055
X4.1339Y-3.2874
X4.1339Y-3.4055
X4.5276Y-3.2874
X4.5276Y-3.4055
X4.9276Y-3.2874
X4.9276Y-3.4055
X5.1575Y-4.0748
X5.1575Y-4.1929
X5.315Y-3.2874
X5.315Y-3.4055
X5.315Y-4.8622
X5.315Y-4.9803
X5.5575Y-4.0748
X5.5575Y-4.1929
X5.715Y-3.2874
X5.715Y-3.4055
X5.715Y-4.8622
X5.715Y-4.9803
T3
X2.3122Y-3.1528
X2.3122Y-3.9402
X2.3122Y-4.7276
X2.4122Y-3.1528
X2.4122Y-3.9402
X2.4122Y-4.7276
X3.0996Y-3.1528
X3.1996Y-3.1528
X3.887Y-3.1528
X3.987Y-3.1528
X4.6744Y-3.1528
X4.7744Y-3.1528
X5.4618Y-3.1528
X5.4618Y-3.9402
X5.4618Y-4.7276
X5.5618Y-3.1528
X5.5618Y-3.9402
X5.5618Y-4.7276
T4
X4.0701Y-3.5433
X4.1701Y-3.5433
X4.2701Y-3.5433
X4.3701Y-3.5433
X5.2559Y-2.5591
X5.3559Y-2.5591
T5
X2.8496Y-2.512
X2.8496Y-2.612
X2.8496Y-2.712
X2.8496Y-2.812
X2.8496Y-2.912
X2.8496Y-3.012
X2.8496Y-3.112
X2.8496Y-3.212
X2.8496Y-3.312
X2.8496Y-3.412
X2.8496Y-3.512
X2.8496Y-3.612
X3.4496Y-2.512
X3.4496Y-2.612
X3.4496Y-2.712
X3.4496Y-2.812
X3.4496Y-2.912
X3.4496Y-3.012
X3.4496Y-3.112
X3.4496Y-3.212
X3.4496Y-3.312
X3.4496Y-3.412
X3.4496Y-3.512
X3.4496Y-3.612
T6
X2.3622Y-2.7205
X2.3622Y-3.5079
X2.3622Y-4.2953
X2.5591Y-2.8031
X2.5591Y-3.5906
X2.5591Y-4.378
X3.1496Y-2.7205
X3.3465Y-2.8031
X3.937Y-2.7205
X4.1339Y-2.8031
X4.7244Y-2.7205
X4.9213Y-2.8031
X5.5118Y-2.7205
X5.5118Y-3.5079
X5.5118Y-4.2953
X5.7087Y-2.8031
X5.7087Y-3.5906
X5.7087Y-4.378
T7
X2.2122Y-2.8528
X2.2122Y-3.6402
X2.2122Y-4.4276
X2.2638Y-2.7953
X2.2638Y-3.5827
X2.2638Y-4.3701
X2.4606Y-2.7756
X2.4606Y-3.563
X2.4606Y-4.3504
X2.4622Y-2.7528
X2.4622Y-3.5402
X2.4622Y-4.3276
X2.9996Y-2.8528
X3.0512Y-2.7953
X3.248Y-2.7756
X3.2496Y-2.7528
X3.787Y-2.8528
X3.8386Y-2.7953
X4.0354Y-2.7756
X4.037Y-2.7528
X4.5744Y-2.8528
X4.626Y-2.7953
X4.8228Y-2.7756
X4.8244Y-2.7528
X5.3618Y-2.8528
X5.3618Y-3.6402
X5.3618Y-4.4276
X5.4134Y-2.7953
X5.4134Y-3.5827
X5.4134Y-4.3701
X5.6102Y-2.7756
X5.6102Y-3.563
X5.6102Y-4.3504
X5.6118Y-2.7528
X5.6118Y-3.5402
X5.6118Y-4.3276
T0
M30
