M48
; DRILL file {KiCad (5.1.9)-1} date 02/07/21 16:45:41
; FORMAT={-:-/ absolute / inch / decimal}
; #@! TF.CreationDate,2021-02-07T16:45:41-06:00
; #@! TF.GenerationSoftware,Kicad,Pcbnew,(5.1.9)-1
; #@! TF.FileFunction,NonPlated,1,2,NPTH
FMAT,2
INCH
T1C0.0315
T2C0.0354
T3C0.0669
T4C0.0689
T5C0.1378
T6C0.1570
T7C1.7323
%
G90
G05
T1
X2.1567Y-3.1181
X2.1567Y-3.9055
X2.1567Y-4.6929
X2.9441Y-3.1181
X3.7315Y-3.1181
X4.5189Y-3.1181
X5.3063Y-3.1181
X5.3063Y-3.9055
X5.3063Y-4.6929
T2
X4.8622Y-2.4606
X4.9803Y-2.4606
T3
X2.1457Y-2.9528
X2.1457Y-3.7402
X2.1457Y-4.5276
X2.5787Y-2.9528
X2.5787Y-3.7402
X2.5787Y-4.5276
X2.9331Y-2.9528
X3.3661Y-2.9528
X3.7205Y-2.9528
X4.1535Y-2.9528
X4.5079Y-2.9528
X4.9409Y-2.9528
X5.2953Y-2.9528
X5.2953Y-3.7402
X5.2953Y-4.5276
X5.7283Y-2.9528
X5.7283Y-3.7402
X5.7283Y-4.5276
T4
X2.1622Y-2.9528
X2.1622Y-3.7402
X2.1622Y-4.5276
X2.5622Y-2.9528
X2.5622Y-3.7402
X2.5622Y-4.5276
X2.9496Y-2.9528
X3.3496Y-2.9528
X3.737Y-2.9528
X4.137Y-2.9528
X4.5244Y-2.9528
X4.9244Y-2.9528
X5.3118Y-2.9528
X5.3118Y-3.7402
X5.3118Y-4.5276
X5.7118Y-2.9528
X5.7118Y-3.7402
X5.7118Y-4.5276
T5
X2.1654Y-2.5591
X2.1654Y-4.1339
X2.1654Y-5.7087
X3.071Y-5.126
X3.937Y-2.5591
X3.937Y-3.626
X4.803Y-5.126
X5.7087Y-2.5591
X5.7087Y-4.1339
X5.7087Y-5.7087
T6
X2.3622Y-2.9528
X2.3622Y-3.7402
X2.3622Y-4.5276
X3.1496Y-2.9528
X3.937Y-2.9528
X4.7244Y-2.9528
X5.5118Y-2.9528
X5.5118Y-3.7402
X5.5118Y-4.5276
T7
X3.937Y-4.626
T0
M30
